<svg xmlns="http://www.w3.org/2000/svg" width="512" height="512" viewBox="0 0 512 512" role="img" aria-label="Cú Đêm">
  <defs>
    <linearGradient id="cudemBg" x1="0" y1="0" x2="1" y2="1">
      <stop offset="0" stop-color="#3b82f6"/>
      <stop offset="1" stop-color="#1e3a8a"/>
    </linearGradient>
  </defs>
  <rect width="512" height="512" rx="116" fill="url(#cudemBg)"/>

  <!-- Trăng lưỡi liềm (đêm) -->
  <path fill="#93c5fd" d="M408 84 a34 34 0 1 0 0 68 a26 26 0 1 1 0-68 Z"/>

  <!-- Chỏm tai cú -->
  <path fill="#ffffff" d="M150 108 L198 176 L116 172 Z"/>
  <path fill="#ffffff" d="M362 108 L396 172 L314 176 Z"/>

  <!-- Hai mắt to -->
  <circle cx="190" cy="262" r="80" fill="#ffffff"/>
  <circle cx="322" cy="262" r="80" fill="#ffffff"/>
  <circle cx="190" cy="268" r="36" fill="#1e293b"/>
  <circle cx="322" cy="268" r="36" fill="#1e293b"/>
  <circle cx="204" cy="252" r="12" fill="#ffffff"/>
  <circle cx="336" cy="252" r="12" fill="#ffffff"/>

  <!-- Mỏ -->
  <path fill="#fbbf24" d="M256 300 L232 324 L280 324 Z"/>
</svg>
